<svg width="20" height="21" viewBox="0 0 20 21" fill="none" xmlns="http://www.w3.org/2000/svg">
<path fill-rule="evenodd" clip-rule="evenodd" d="M9.99976 13.8334C9.80976 13.8334 9.62059 13.7692 9.46643 13.6401L4.46643 9.4734C4.11309 9.17923 4.06476 8.6534 4.35976 8.30007C4.65393 7.94673 5.17893 7.89923 5.53309 8.1934L10.0089 11.9234L14.4773 8.32757C14.8356 8.03923 15.3606 8.0959 15.6489 8.45423C15.9373 8.81257 15.8806 9.33673 15.5223 9.6259L10.5223 13.6492C10.3698 13.7717 10.1848 13.8334 9.99976 13.8334Z" fill="white"/>
<mask id="mask0_462_3175" style="mask-type:alpha" maskUnits="userSpaceOnUse" x="4" y="8" width="12" height="6">
<path fill-rule="evenodd" clip-rule="evenodd" d="M9.99976 13.8334C9.80976 13.8334 9.62059 13.7692 9.46643 13.6401L4.46643 9.4734C4.11309 9.17923 4.06476 8.6534 4.35976 8.30007C4.65393 7.94673 5.17893 7.89923 5.53309 8.1934L10.0089 11.9234L14.4773 8.32757C14.8356 8.03923 15.3606 8.0959 15.6489 8.45423C15.9373 8.81257 15.8806 9.33673 15.5223 9.6259L10.5223 13.6492C10.3698 13.7717 10.1848 13.8334 9.99976 13.8334Z" fill="white"/>
</mask>
<g mask="url(#mask0_462_3175)">
<rect y="0.5" width="20" height="20" fill="white"/>
</g>
</svg>
